<svg id="Layer_1" data-name="Layer 1" xmlns="http://www.w3.org/2000/svg" viewBox="0 0 442 581"><defs><style>.cls-1{fill:#364b4e;}.cls-2{fill:#f6f0de;}</style></defs><title>big-fish</title><path class="cls-1" d="M291.11,177.1c-3.93-18-7.94-36.06-11.71-54.12-.77-3.68-1.7-4.38-5-2.29-10,6.25-20.23,12.21-30.84,17.48-15.28,7.61-30.46,7.3-45.7.15a81.36,81.36,0,0,1-25.21-18.53,32.42,32.42,0,0,1-3.39-4.91,1.75,1.75,0,0,1,.15-2.3,1.82,1.82,0,0,1,2.3,0c1.47.78,2.92,1.61,4.32,2.49a45.79,45.79,0,0,0,15.66,6.29c13,2.6,23.74-.77,31.73-11.66,2.66-3.62,5.29-7.27,7.77-11,10.79-16.35,19.78-19,36.5-12.51.84-.31.61-1.06.59-1.65-.51-13.43,3.12-18.91,15.52-24.15,5.83-2.45,12.32-3.06,17.77-6.46,9.86-6.14,16.3-15.1,20.63-25.65s2.37-17.43-6.83-24.45c-1.27-1-3-1.44-3.35-3.37,6.26-1.6,12.65,1.4,16.51,7.82a68,68,0,0,1,8.78,49c-1.94,10.43-8.22,18.44-15.12,26a152.1,152.1,0,0,1-23.95,21.11c-3.17,2.26-3.27,3.49-.15,6.07,19.68,16.23,38.56,33.3,54.9,53a119,119,0,0,1,12.37,18.55,6.8,6.8,0,0,0,1.93,3.93l-.08-.08c-.07,2.09,1.11,3.79,1.79,5.65,4.46,12.17,6.81,24.58,5.63,37.66a122.7,122.7,0,0,1-15.67,50.09,62.19,62.19,0,0,0-7.83,24.54c-1.67,16,.9,31.73,5.81,46.76,6.95,21.29,6.64,42.2.17,63.28-2.47,8.05-5.32,16-8,24l.07-.12c-.85-.22-.8.48-1,.95-5.09,10.62-12.27,19.71-20.71,27.84-1.91,1.85-1.44,2.85.59,4.16,4.78,3.09,9.65,5.88,15.37,6.9,14.75,2.6,29.45,2.87,44.16-.37,5.75-1.27,11-3.7,16.24-6.28,9.4-4.62,19.27-6.41,29.59-3.78,8.35,2.13,10.62,6.47,6.53,13.9-14.15,25.68-33.85,44.87-64.12,49-26.35,3.57-48.21-6.85-66.59-25.27-3.15-3.16-6.47-6.27-8.35-10.5-.42-.95-1.08-1.69-2.32-1.38-.67-3.81-2.55-3.39-5.24-1.75-18.92,11.57-39,19.92-61.27,22.65q-23.52,2.88-47,6.16c-20.93,2.91-40.93,8.49-59,20-10.65,6.78-21.65,13-32.7,19.13-14.58,8.06-30,12.49-46.94,10-9.66-1.4-19.39-2.25-29.09-3.34l.13.11c-.1-1.33-1.11-.7-1.77-.82-6.74-2.79-11.46-7.73-13.29-14.66-3.61-13.7-4.4-27,7.69-37.72,5.35-4.75,8.21-11.19,10.36-18C25,480,29.17,465.23,36.5,451.65c13.06-24.24,34.2-38.43,59.2-47.87,15.58-5.89,32.06-9,47.59-15a178.86,178.86,0,0,0,28.14-14c3.3-2,4.68-4.38,4.94-8.37,1.35-21.15,3.68-42.28,11.69-62.06,8.39-20.7,21.41-38.61,36.48-55a8.5,8.5,0,0,1,1.51-1.3c1.33-.89,2.71-2.81,4.31-1.71,1.87,1.3.55,3.37-.1,5C227.62,258,224,264.19,222,271.09c-4.05,13.67-.41,25.75,8,36.48,6.5,8.26,9.86,8.08,17.41.56.54-.29,1.17-.53.92-1.37l-.1.15c.85.12,1.38-.08,1.15-1.09l-.07.14c.32,0,.74.15.93,0,17.78-14.36,34.75-29.56,49-47.55a11.91,11.91,0,0,0,1.78-12.69,68.55,68.55,0,0,0-3-6.84c-5.13-9.48-6.17-19.19-2.17-29.34A17.48,17.48,0,0,0,297,199.26,219.69,219.69,0,0,0,291.11,177.1ZM147.65,504c25.16.09,60-23.07,69.67-46.31,2.17-5.23,1.12-8.32-4.11-11.08-7.1-3.75-14.43-2.68-21.24.35-23.22,10.31-37.79,29.31-49.54,50.83C139.76,502.68,141.16,504,147.65,504Z"/><path class="cls-2" d="M17.27,565.62c9.7,1.09,19.43,1.94,29.09,3.34,16.94,2.46,32.36-2,46.94-10,11-6.1,22-12.35,32.7-19.13,18.11-11.51,38.11-17.09,59-20q23.47-3.27,47-6.16c22.23-2.73,42.35-11.08,61.27-22.65,2.69-1.64,4.57-2.06,5.24,1.75-6.18,2.66-11.05,7.32-16.47,11.11C247.17,528.2,209.53,547.2,169.68,562c-25.41,9.41-51.41,16.45-78.53,18.34-23.34,1.63-46.29-.12-67.83-10.51C21.1,568.72,18.67,567.9,17.27,565.62Z"/><path class="cls-2" d="M349.07,437.73c2.67-8,5.52-15.91,8-24,6.47-21.08,6.78-42-.17-63.28-4.91-15-7.48-30.71-5.81-46.76a62.19,62.19,0,0,1,7.83-24.54,122.7,122.7,0,0,0,15.67-50.09c1.18-13.08-1.17-25.49-5.63-37.66-.68-1.86-1.86-3.56-1.79-5.65,4.68,5.06,6.17,11.68,8.21,17.89,7,21.14,10.22,43,12,65.12.91,11,1.2,21.94,1.1,32.9-.3,32.38-5.7,63.81-18.25,93.88-5.46,13.08-11.06,26.05-18.21,38.31C351.24,435.28,350.79,437,349.07,437.73Z"/><path class="cls-2" d="M291.11,177.1A219.69,219.69,0,0,1,297,199.26a17.48,17.48,0,0,1-1.11,10.28c-4,10.15-3,19.86,2.17,29.34a68.55,68.55,0,0,1,3,6.84,11.91,11.91,0,0,1-1.78,12.69c-14.26,18-31.23,33.19-49,47.55-.19.15-.61,0-.93,0,3.77-7.19,8.76-13.63,12.42-20.92,13-25.84,23.74-52.42,28-81.23,1.14-7.71,2-15.51.94-23.35C290.54,179.33,290.29,178.13,291.11,177.1Z"/><path class="cls-2" d="M367.24,185.87a6.8,6.8,0,0,1-1.93-3.93C366.88,182.8,366.87,184.43,367.24,185.87Z"/><path class="cls-2" d="M15.63,564.91c.66.12,1.67-.51,1.77.82Z"/><path class="cls-2" d="M348.15,438.56c.19-.47.14-1.17,1-.95C349.16,438.29,349.2,439,348.15,438.56Z"/><path class="cls-2" d="M248.37,306.76c.25.84-.38,1.08-.92,1.37Z"/><path class="cls-2" d="M249.42,305.82c.23,1-.3,1.21-1.15,1.09Z"/><path class="cls-2" d="M147.65,504c-6.49,0-7.89-1.31-5.22-6.21C154.18,476.26,168.75,457.26,192,447c6.81-3,14.14-4.1,21.24-.35,5.23,2.76,6.28,5.85,4.11,11.08C207.64,480.92,172.81,504.08,147.65,504Z"/></svg>