<svg id="Layer_1" data-name="Layer 1" xmlns="http://www.w3.org/2000/svg" viewBox="0 0 233 38"><defs><style>.cls-1{fill:#fff;}</style></defs><title>Logo</title><path class="cls-1" d="M37.48,21.44C36.33,32,28.51,37.8,19.22,37.8a18.9,18.9,0,1,1,0-37.8c8.91,0,16.47,5.29,18.2,13.88l-8.75,0c-1.13-5.24-4.8-5.78-9.45-5.78A10.38,10.38,0,0,0,8.91,18.9c0,6.16,4.59,10.8,10.31,10.8,4.59,0,8.27-2.59,9.51-8Z"/><path class="cls-1" d="M70.79,25.65H50.92c.7,3.24,2.92,5.24,5.83,5.24a6,6,0,0,0,5.78-3.13l7.67,1.56C67.88,35.05,63,37.8,56.75,37.8A14,14,0,0,1,42.44,23.44,14,14,0,0,1,56.81,9.07c7.67,0,13.82,5.51,14,14.37ZM51.08,20.36H62.26a5.41,5.41,0,0,0-5.45-4.27A5.94,5.94,0,0,0,51.08,20.36Z"/><path class="cls-1" d="M97.09,35.8a14.64,14.64,0,0,1-7.4,2c-6.75,0-10.8-3.67-10.8-10.8V16.74H74V9.88h4.91v-8h8.64v8h8v6.86h-8v9.4c0,2.8,1.35,3.94,3.62,3.94A8.77,8.77,0,0,0,95.09,29Z"/><path class="cls-1" d="M130.09,37h-8.64V34.83a12.23,12.23,0,0,1-8.43,3c-7.18,0-13.23-5.78-13.23-14.36s6-14.37,13.23-14.37a12.23,12.23,0,0,1,8.43,3V9.88h8.64Zm-8.64-13.55a6.77,6.77,0,0,0-6.65-7c-3.78,0-6.53,2.86-6.53,7s2.75,7,6.53,7A6.74,6.74,0,0,0,121.45,23.44Z"/><path class="cls-1" d="M157,25.49l7.94,1.73c-1.35,6.42-7.08,10.58-13.83,10.58-8.1,0-14.8-5.78-14.8-14.36S143,9.07,151.09,9.07c6.59,0,12.31,4,13.83,10.42l-8.1,2c-.76-3.3-3-4.81-5.73-4.81-3.89,0-6.48,2.86-6.48,6.81s2.59,6.8,6.48,6.8C153.85,30.24,156.06,28.78,157,25.49Z"/><path class="cls-1" d="M197.69,25.65H177.82c.7,3.24,2.92,6.24,5.83,6.24,2,0,4.5.07,5.95-2.58h7.5c-2.32,5.73-7.24,8.48-13.45,8.48a14,14,0,0,1-14.31-14.36A14,14,0,0,1,183.71,9.07c7.67,0,13.82,5.51,14,14.37ZM178,20.36h11.18a5.41,5.41,0,0,0-5.45-4.27A5.94,5.94,0,0,0,178,20.36Z"/><path class="cls-1" d="M232.42,37h-8.64V34.83a12.23,12.23,0,0,1-8.43,3c-7.18,0-13.23-5.78-13.23-14.36s6-14.37,13.23-14.37a12.23,12.23,0,0,1,8.43,3V9.88h8.64Zm-8.64-13.55a6.77,6.77,0,0,0-6.65-7c-3.78,0-6.53,2.86-6.53,7s2.75,7,6.53,7A6.74,6.74,0,0,0,223.78,23.44Z"/></svg>